<?xml version="1.0" encoding="utf-8"?>
<!-- Generator: Adobe Illustrator 16.0.0, SVG Export Plug-In . SVG Version: 6.00 Build 0)  -->
<!DOCTYPE svg PUBLIC "-//W3C//DTD SVG 1.1//EN" "http://www.w3.org/Graphics/SVG/1.1/DTD/svg11.dtd">
<svg version="1.1" id="Ebene_3" xmlns="http://www.w3.org/2000/svg" xmlns:xlink="http://www.w3.org/1999/xlink" x="0px" y="0px"
	 width="8503.941px" height="2834.649px" viewBox="0 0 8503.941 2834.649" enable-background="new 0 0 8503.941 2834.649"
	 xml:space="preserve">
<title>PCS_ITTrading</title>
<path fill="#FE000C" d="M2691.813,1497.192c84.517,0,144.1-14.791,166.072-95.925l262.421-929.671
	c7.808-23.915,12.216-48.809,13.102-73.95c0-62.965-42.259-73.951-131-75.642l10.987-49.864h483.851
	c341.865,0,554.422,29.581,554.422,295.806c0,225.232-223.544,373.136-537.519,373.136c-69.243,0.486-138.435-3.893-207.063-13.1
	l-123.815,439.479c-5.771,17.392-9.459,35.406-10.985,53.667c0,62.965,42.258,75.643,160.579,77.756l-9.297,49.863h-642.739
	L2691.813,1497.192z M3325.681,863.325c38.501,5.313,77.346,7.716,116.208,7.184c238.335,0,308.481-157.197,308.481-365.952
	c0-116.209-86.628-164.382-179.174-164.382c-77.754,0-99.728,3.803-120.012,79.444L3325.681,863.325z"/>
<path fill="#FE000C" d="M5299.541,669.785h-53.668c0-21.974,3.806-42.258,3.806-66.345c0-171.989-64.654-295.805-243.828-295.805
	c-321.58,0-535.828,521.038-535.828,814.729c0,105.223,31.271,343.555,301.299,343.555c169.03,0,295.805-105.221,393.42-230.728
	l62.963,49.864c-121.703,171.991-299.185,295.803-517.234,295.803c-343.555,0-553.999-184.666-553.999-537.518
	c0-406.519,373.135-802.896,785.149-802.896c72.174,0.247,144.074,8.897,214.246,25.777c42.481,14.184,86.426,23.539,131,27.89
	c36.994,2.925,70.646-21.419,79.444-57.471h53.666L5299.541,669.785z"/>
<path fill="#FE000C" d="M5545.901,1163.354h49.865c0,208.755,122.125,347.361,306.791,347.361
	c112.529,6.609,209.113-79.254,215.724-191.785c0.383-6.495,0.453-13.004,0.213-19.506c0-116.209-110.715-221.854-219.74-332.568
	c-109.025-110.714-221.854-227.346-221.854-363.838c0-238.334,169.031-365.952,404.408-365.952
	c71.359-0.194,142.424,9.187,211.287,27.89c38.154,11.573,76.959,20.886,116.209,27.891c38.722,5.609,74.871-20.614,81.56-59.161
	h49.865l-81.138,395.532h-49.862c14.791-164.383-75.644-323.271-253.547-323.271c-105.222,0-190.16,55.356-190.16,164.383
	c0,122.125,112.83,218.05,221.854,324.962s219.74,225.234,219.74,389.616c0,256.927-204.949,393.419-443.283,393.419
	c-204.949,0-301.297-81.137-380.318-81.137c-42.258,0-59.162,35.074-73.951,84.518h-49.865L5545.901,1163.354z"/>
<circle fill="#FE000C" cx="1358.582" cy="855.719" r="855.719"/>
<path fill="#536576" d="M4135.685,2826.62v-484.695h111.978v484.695H4135.685z"/>
<path fill="#536576" d="M4547.269,2437.426v389.193h-111.14v-389.193H4319.92v-95.502h343.979v95.502H4547.269L4547.269,2437.426z"
	/>
<path fill="#536576" d="M5227.701,2437.426v389.193h-111.138v-389.193h-116.209v-95.502h343.979v95.502H5227.701L5227.701,2437.426z
	"/>
<path fill="#536576" d="M5645.208,2826.62l-114.941-189.736h-4.227v189.736h-111.982v-484.695
	c42.258-2.959,93.39-3.803,151.705-3.803c114.099,0,182.978,42.258,182.978,143.676c0.694,64.465-43.94,120.57-106.912,134.381
	l37.187,54.514l102.688,155.932L5645.208,2826.62z M5560.692,2431.088c-11.408,0-24.51,0-30.848,0v126.771
	c9.289,0.48,18.6,0.48,27.889,0c47.33,0,77.754-24.932,77.754-65.922C5635.487,2450.95,5611.401,2431.088,5560.692,2431.088z"/>
<path fill="#536576" d="M6155.259,2826.62l-30.002-89.586h-169.031l-29.58,90.01h-111.139l163.961-484.697h126.771l169.031,484.697
	L6155.259,2826.62z M6063.138,2551.522c-9.625-26.113-17.115-52.965-22.396-80.289l0,0c-5.674,28.658-13.299,56.896-22.819,84.516
	l-31.693,91.275h111.984L6063.138,2551.522z"/>
<path fill="#536576" d="M6486.983,2830.424c-51.133,0-99.307-2.113-143.676-4.227V2343.19c38.031-2.111,99.728-4.227,165.228-4.227
	c145.791,0,242.981,63.387,242.981,235.799C6751.515,2740.415,6645.026,2830.424,6486.983,2830.424z M6501.351,2433.202
	c-15.342-0.838-30.719-0.838-46.061,0v295.805c13.994,2.02,28.117,3.01,42.258,2.959c76.908,0,134.379-47.33,134.379-150.861
	c-0.424-89.164-30.002-150.016-130.576-150.016V2433.202z"/>
<path fill="#536576" d="M6843.216,2826.62v-484.695h111.982v484.695H6843.216z"/>
<path fill="#536576" d="M7349.041,2826.62l-114.097-209.176c-18.58-34.609-35.362-70.154-50.287-106.49
	c2.113,35.92,3.381,84.516,3.381,130.578v184.666h-106.065v-484.273h143.676l106.487,191.852
	c21.554,39.299,42.258,81.979,58.74,119.168c-3.381-42.258-5.071-105.646-5.071-151.705v-159.314h107.758v484.695H7349.041
	L7349.041,2826.62z"/>
<path fill="#536576" d="M7984.175,2458.979c-40.371-15.965-83.361-24.275-126.773-24.51c-77.744-5.66-145.356,52.775-151.018,130.52
	c-0.543,7.477-0.492,14.984,0.156,22.453c0,90.008,47.33,145.789,137.762,145.789c15.592,0.344,31.141-1.797,46.061-6.338v-158.889
	h111.982v234.953c-53.857,21.072-111.199,31.822-169.031,31.693c-157.199,0-246.361-91.277-246.361-238.334
	c0-154.24,105.646-261.576,278.056-261.576c47.228,0.297,94.176,7.27,139.451,20.707L7984.175,2458.979z"/>
<rect x="4743.161" y="2598.022" fill="#536576" width="184.822" height="70.383"/>
</svg>
